<svg xmlns="http://www.w3.org/2000/svg" xmlns:xlink="http://www.w3.org/1999/xlink" version="1.1" width="256" height="256" viewBox="0 0 256 256" xml:space="preserve">
<g style="stroke: none; stroke-width: 0; stroke-dasharray: none; stroke-linecap: butt; stroke-linejoin: miter; stroke-miterlimit: 10; fill: none; fill-rule: nonzero; opacity: 1;" transform="translate(1.4065934065934016 1.4065934065934016) scale(2.81 2.81)">
	<circle cx="45" cy="45" r="45" style="stroke: none; stroke-width: 1; stroke-dasharray: none; stroke-linecap: butt; stroke-linejoin: miter; stroke-miterlimit: 10; fill: rgb(32,196,203); fill-rule: nonzero; opacity: 1;" transform="  matrix(1 0 0 1 0 0) "/>
	<path d="M 71.496 43.527 c 0 -10.873 -12.647 -19.688 -28.248 -19.688 C 27.647 23.839 15 32.653 15 43.527 s 12.647 19.688 28.248 19.688 c 1.812 0 3.582 -0.124 5.3 -0.351 l 11.363 8.522 c 0.912 0.684 2.214 0.033 2.214 -1.107 V 58.171 C 67.877 54.567 71.496 49.342 71.496 43.527 z" style="stroke: none; stroke-width: 1; stroke-dasharray: none; stroke-linecap: butt; stroke-linejoin: miter; stroke-miterlimit: 10; fill: rgb(27,167,173); fill-rule: nonzero; opacity: 1;" transform=" matrix(1 0 0 1 0 0) " stroke-linecap="round"/>
	<path d="M 75 40.023 c 0 -10.873 -12.647 -19.688 -28.248 -19.688 c -15.601 0 -28.248 8.815 -28.248 19.688 s 12.647 19.688 28.248 19.688 c 1.812 0 3.582 -0.124 5.3 -0.351 l 11.363 8.522 c 0.912 0.684 2.214 0.033 2.214 -1.107 V 54.667 C 71.38 51.063 75 45.838 75 40.023 z" style="stroke: none; stroke-width: 1; stroke-dasharray: none; stroke-linecap: butt; stroke-linejoin: miter; stroke-miterlimit: 10; fill: rgb(255,255,255); fill-rule: nonzero; opacity: 1;" transform=" matrix(1 0 0 1 0 0) " stroke-linecap="round"/>
</g>
</svg>